<?xml version="1.0" standalone="no"?>
<!DOCTYPE svg PUBLIC "-//W3C//DTD SVG 20010904//EN"
 "http://www.w3.org/TR/2001/REC-SVG-20010904/DTD/svg10.dtd">
<svg version="1.0" xmlns="http://www.w3.org/2000/svg"
 width="438.000000pt" height="500.000000pt" fill="red" viewBox="0 0 438.000000 500.000000"
 preserveAspectRatio="xMidYMid meet">

<g transform="translate(0.000000,500.000000) scale(0.100000,-0.100000)"
fill="#000000" stroke="none">
<path d="M1295 4986 c-146 -35 -278 -153 -331 -296 -11 -29 -19 -93 -23 -180
l-6 -135 -296 -5 -295 -5 -76 -38 c-131 -64 -230 -186 -257 -315 -17 -82 -14
-447 4 -509 31 -104 129 -193 236 -215 l58 -12 3 -1385 c3 -1314 4 -1389 22
-1441 75 -226 252 -391 465 -436 62 -12 257 -14 1424 -12 l1352 3 73 27 c156
57 281 168 353 313 71 143 68 83 69 1585 l0 1346 56 12 c109 23 208 112 239
215 21 72 21 439 0 522 -35 132 -123 238 -253 302 l-76 38 -295 5 -296 5 -6
135 c-4 87 -12 151 -23 180 -55 147 -193 267 -344 299 -78 16 -1709 14 -1777
-3z m1761 -322 c61 -45 69 -66 69 -182 l0 -107 -935 0 -935 0 -3 80 c-2 44 0
95 3 113 8 42 58 99 99 111 18 6 374 9 853 8 813 -2 822 -2 849 -23z m934
-625 c69 -39 75 -60 75 -264 l0 -180 -1875 0 -1875 0 -3 158 c-1 87 2 175 8
196 10 40 50 87 85 102 11 4 814 8 1784 8 l1763 1 38 -21z m-242 -2131 l-3
-1373 -25 -48 c-30 -59 -96 -121 -158 -150 l-47 -22 -1325 0 -1325 0 -57 28
c-33 16 -76 49 -102 78 -82 91 -76 -25 -76 1501 l0 1358 1560 0 1560 0 -2
-1372z"/>
<path d="M1021 2948 c-88 -47 -81 48 -81 -1153 0 -1040 0 -1061 20 -1093 41
-67 61 -72 295 -72 231 0 244 3 286 66 18 28 19 68 19 1097 0 1176 4 1101 -62
1149 -32 22 -42 23 -233 26 -193 3 -201 2 -244 -20z m389 -1153 l0 -1016 -157
3 -158 3 -3 1013 -2 1012 160 0 160 0 0 -1015z"/>
<path d="M1963 2950 c-25 -11 -51 -33 -63 -52 -20 -33 -20 -48 -20 -1096 0
-1166 -4 -1092 60 -1146 l32 -26 218 0 218 0 32 26 c64 54 60 -20 60 1145 l0
1062 -22 35 c-38 62 -77 72 -288 72 -161 0 -190 -3 -227 -20z m387 -1155 l0
-1015 -160 0 -160 0 0 1015 0 1015 160 0 160 0 0 -1015z"/>
<path d="M2925 2963 c-11 -3 -32 -14 -48 -25 -60 -43 -57 22 -57 -1145 0
-1029 1 -1069 19 -1097 42 -63 55 -66 286 -66 234 0 254 5 295 72 20 32 20 53
20 1091 0 1032 0 1059 -20 1096 -13 27 -33 46 -63 60 -40 19 -59 21 -228 20
-101 -1 -193 -4 -204 -6z m358 -1165 l-3 -1013 -155 -3 -155 -3 0 1016 0 1015
158 0 157 0 -2 -1012z"/>
</g>
</svg>
